<?xml version="1.0" standalone="no"?>
<!DOCTYPE svg PUBLIC "-//W3C//DTD SVG 20010904//EN"
 "http://www.w3.org/TR/2001/REC-SVG-20010904/DTD/svg10.dtd">
<svg version="1.0" xmlns="http://www.w3.org/2000/svg"
 width="576.000000pt" height="576.000000pt" viewBox="0 0 576.000000 576.000000"
 preserveAspectRatio="xMidYMid meet">
<metadata>
Created by potrace 1.14, written by Peter Selinger 2001-2017
</metadata>
<g transform="translate(0.000000,576.000000) scale(0.100000,-0.100000)"
fill="#000000" stroke="none">
<path d="M2844 5608 c-5 -13 -8 -25 -9 -28 0 -3 -6 -21 -12 -40 -13 -40 -126
-392 -185 -580 -22 -69 -49 -152 -60 -185 -11 -33 -21 -67 -23 -75 -2 -8 -8
-27 -14 -42 -6 -16 -8 -28 -5 -28 4 0 2 -6 -4 -12 -5 -7 -22 -53 -36 -103 -15
-49 -30 -97 -33 -105 -3 -8 -7 -19 -8 -25 -2 -5 -33 -104 -70 -220 -37 -115
-67 -211 -66 -212 0 -2 -6 -20 -13 -40 -8 -21 -38 -112 -67 -203 -28 -91 -53
-166 -54 -168 -2 -2 -160 -3 -352 -2 -1311 5 -1823 5 -1823 0 0 -3 17 -16 37
-30 43 -29 279 -203 306 -225 9 -8 19 -15 22 -15 3 0 147 -104 190 -137 6 -5
53 -40 105 -78 52 -38 97 -73 98 -77 2 -5 10 -8 18 -8 8 0 14 -4 14 -10 0 -5
6 -10 14 -10 8 0 16 -4 18 -8 3 -7 347 -264 385 -287 9 -5 24 -16 32 -22 23
-18 280 -207 319 -235 33 -24 126 -92 173 -128 l26 -20 -32 -95 c-18 -52 -31
-95 -29 -95 2 0 -5 -20 -16 -45 -11 -25 -17 -45 -14 -45 2 0 -2 -13 -11 -30
-8 -16 -15 -33 -15 -37 0 -13 2 -6 -186 -588 -32 -99 -59 -182 -59 -185 0 -3
-11 -36 -24 -75 -13 -38 -24 -74 -25 -80 -2 -5 -27 -84 -56 -175 -30 -91 -55
-167 -56 -170 0 -3 -3 -12 -7 -20 -17 -46 -143 -446 -141 -449 2 -2 109 75
239 170 130 96 285 209 343 252 59 42 114 83 122 90 8 6 83 61 165 122 83 60
155 113 160 118 6 4 60 44 120 88 61 44 117 85 125 92 8 7 47 35 85 62 39 27
72 52 75 55 3 3 21 17 40 30 19 14 40 28 45 33 6 4 48 36 95 70 47 34 87 65
88 70 2 4 10 7 18 7 8 0 14 4 14 9 0 13 32 23 39 13 3 -4 29 -24 56 -42 28
-19 55 -38 60 -42 23 -19 125 -94 145 -108 12 -8 41 -29 64 -46 63 -48 335
-248 485 -358 73 -54 139 -102 145 -107 6 -6 70 -53 141 -105 72 -52 137 -100
145 -107 9 -6 38 -28 65 -47 28 -19 55 -38 60 -42 17 -14 81 -62 107 -80 12
-9 79 -58 147 -108 68 -50 124 -90 126 -88 2 2 -3 21 -10 43 -7 22 -52 162
-100 310 -48 149 -105 324 -127 390 -22 66 -41 125 -42 130 -2 6 -22 69 -45
140 -24 72 -44 135 -45 140 -2 6 -6 17 -9 25 -15 37 -70 215 -67 215 2 0 -2
10 -9 23 -7 13 -14 31 -16 40 -3 18 -82 261 -142 442 -20 58 -36 110 -38 115
-1 6 -5 18 -8 28 -15 39 -15 46 6 64 21 19 302 225 391 287 22 16 43 32 44 37
2 5 10 9 18 9 8 0 14 5 14 10 0 6 6 10 14 10 8 0 16 4 18 8 2 6 278 212 351
262 12 8 68 49 124 90 56 41 136 100 178 130 42 30 84 61 93 68 21 15 223 163
275 200 21 15 46 34 57 42 10 8 50 38 89 65 39 28 70 52 71 55 0 5 -1437 4
-1545 0 -16 -1 -166 -1 -331 -1 l-302 1 -23 72 c-12 40 -23 78 -24 83 -2 6
-17 55 -35 110 -36 111 -42 130 -40 130 0 0 -9 27 -20 60 -12 33 -23 67 -25
75 -2 8 -4 16 -5 18 -3 2 -3 2 -15 47 -4 17 -11 35 -16 40 -4 6 -8 13 -8 18
-1 4 -1 8 -2 10 0 1 -2 9 -4 17 -1 8 -35 116 -75 240 -60 185 -130 409 -144
455 -2 6 -6 17 -9 25 -8 22 -31 93 -33 105 -1 6 -13 44 -26 85 -14 41 -35 109
-47 150 -13 41 -27 84 -31 95 -5 11 -25 73 -46 138 -20 64 -38 117 -39 117 -2
0 -7 -10 -11 -22z"/>
</g>
</svg>
