<svg width="24" height="24" viewBox="0 0 24 24" fill="none" xmlns="http://www.w3.org/2000/svg">
<path d="M12.951 2.927C12.652 2.006 11.349 2.006 11.049 2.927L9.52997 7.601C9.46455 7.80165 9.33732 7.97646 9.1665 8.1004C8.99568 8.22434 8.79002 8.29106 8.57897 8.291H3.66497C2.69697 8.291 2.29297 9.531 3.07697 10.101L7.05297 12.989C7.22377 13.1132 7.35087 13.2882 7.41608 13.489C7.48129 13.6899 7.48125 13.9062 7.41597 14.107L5.89797 18.781C5.59797 19.702 6.65297 20.469 7.43597 19.899L11.412 17.011C11.5829 16.8868 11.7887 16.8199 12 16.8199C12.2112 16.8199 12.4171 16.8868 12.588 17.011L16.564 19.899C17.347 20.469 18.402 19.703 18.102 18.781L16.584 14.107C16.5187 13.9062 16.5187 13.6899 16.5839 13.489C16.6491 13.2882 16.7762 13.1132 16.947 12.989L20.923 10.101C21.706 9.531 21.304 8.291 20.335 8.291H15.42C15.2091 8.29085 15.0037 8.22403 14.833 8.10011C14.6624 7.97618 14.5353 7.80149 14.47 7.601L12.951 2.927Z" stroke="#212121" stroke-width="2" stroke-linecap="round" stroke-linejoin="round"/>
</svg>
