<svg xmlns="http://www.w3.org/2000/svg" width="1136.174" height="284.821" viewBox="0 0 1136.174 284.821"><path d="M842.055 64.517h35.672v57.435h-35.672v103.072h35.672v59.797h-60.721l-35.976-35.879V0h61.025zM536.65 143.469h18.25V64.517h65.012v78.952l-25.514 25.63 25.514 25.714v90.008H554.9v-90.008h-18.25v90.008h-63.735V0h63.735zM62.448 64.517H96.65v57.435H62.448v103.072h34.147v59.797H35.082L0 249.838V0h62.448zm1073.726 57.435h-34.492v162.869h-62.207V101.629l37.184-37.112h59.515zm-364.999 0h-82.84v21.554h48.34l34.5 34.663v70.773l-35.769 35.879H629.667v-59.797h80.489v-30.233h-80.508l.019-93.162 37.237-37.112h104.271zm-342.91 103.072h34.817v59.797H403.7l-35.801-35.879V101.629l37.149-37.112h58.034v57.435h-34.817zM296.358 64.517h61.635v184.425l-35.923 35.879h-73.532l-36.102-35.879V64.517h63.285v160.507h20.637zm.051 40.642l-.202.202m-93.769 16.591h-33.469v162.869h-62.53V101.629l37.168-37.112h58.831zm790.151-57.435H887.546v57.435h78.422v21.555h-78.422v105.436l36.07 35.879h106.027V101.629l-37.054-37.112zm2.629 183.981l-29.25-23.474-27.164 23.87 12.16-37.763-26.25-16.276 31.531-.024 9.752-30.208 10.465 30.168h30.662l-24.973 15.943 13.067 37.764z" fill="black"/></svg>